<svg width="50" height="50" xmlns="http://www.w3.org/2000/svg">
 <defs>
  <linearGradient y2="1" x2="1" y1="0" x1="0" id="svg_4">
   <stop offset="0" stop-color="#ff0000"/>
   <stop offset="1" stop-color="#00ffff"/>
  </linearGradient>
 </defs>
 <g>
  <title>background</title>
  <rect fill="none" id="canvas_background" height="402" width="582" y="-1" x="-1"/>
 </g>
 <g>
  <title>Layer 1</title>
  <path fill-opacity="0.93" id="svg_1" fill="url(#svg_4)" d="m45,1l-40,0c-2.2,0 -4,1.8 -4,4l0,40c0,2.2 1.8,4 4,4l40,0c2.2,0 4,-1.8 4,-4l0,-40c0,-2.2 -1.8,-4 -4,-4z"/>
  <path id="svg_2" fill="#FFFFFF" d="m25,10c-8.3,0 -15,6.7 -15,15c0,2.8 0.8,5.5 2.1,7.7l-2.1,4.3l5,-0.8c2.7,2.4 6.1,3.8 10,3.8c8.3,0 15,-6.7 15,-15c0,-8.3 -6.7,-15 -15,-15zm1,22l-6,0l0,-14l6,0c5.1,0 7,2.8 7,7c0,4.2 -1.8,7 -7,7z"/>
  <path id="svg_3" fill="#FFFFFF" d="m26,21l-3,0l0,8l3,0c2.4,0 4,-1.6 4,-4c0,-2.3 -1.6,-4 -4,-4z"/>
 </g>
</svg>